<?xml version="1.0" encoding="iso-8859-1"?>
<!-- Generator: Adobe Illustrator 19.0.0, SVG Export Plug-In . SVG Version: 6.00 Build 0)  -->
<svg version="1.1" id="Capa_1" xmlns="http://www.w3.org/2000/svg" xmlns:xlink="http://www.w3.org/1999/xlink" x="0px" y="0px"
	 viewBox="0 0 512 512" style="enable-background:new 0 0 512 512;" xml:space="preserve">
<g>
	<path id="SVGCleanerId_0" style="fill:#336A93;" d="M52.966,0h406.069C488.287,0,512,23.713,512,52.966v406.069
		C512,488.287,488.287,512,459.034,512H52.966C23.713,512,0,488.287,0,459.034V52.966C0,23.713,23.713,0,52.966,0z"/>
	<g>
		<circle style="fill:#5496CE;" cx="66.207" cy="66.207" r="22.069"/>
		<circle style="fill:#5496CE;" cx="445.793" cy="66.207" r="22.069"/>
		<circle style="fill:#5496CE;" cx="66.207" cy="445.793" r="22.069"/>
		<circle style="fill:#5496CE;" cx="445.793" cy="445.793" r="22.069"/>
	</g>
	<g>
		
			<ellipse style="fill:none;stroke:#000000;stroke-width:2;stroke-linecap:round;stroke-linejoin:round;" cx="256" cy="256" rx="97.103" ry="194.207"/>
		
			<ellipse style="fill:none;stroke:#000000;stroke-width:2;stroke-linecap:round;stroke-linejoin:round;" cx="256" cy="256" rx="61.793" ry="158.897"/>
		<path style="fill:none;stroke:#000000;stroke-width:2;stroke-linecap:round;stroke-linejoin:round;" d="M256,203.034v105.931"/>
	</g>
	<g>
		<path id="SVGCleanerId_0_1_" style="fill:#336A93;" d="M52.966,0h406.069C488.287,0,512,23.713,512,52.966v406.069
			C512,488.287,488.287,512,459.034,512H52.966C23.713,512,0,488.287,0,459.034V52.966C0,23.713,23.713,0,52.966,0z"/>
	</g>
	<g>
		<g>
			<circle style="fill:#5496CE;" cx="66.207" cy="66.207" r="22.069"/>
			<circle style="fill:#5496CE;" cx="445.793" cy="66.207" r="22.069"/>
			<circle style="fill:#5496CE;" cx="66.207" cy="445.793" r="22.069"/>
			<circle style="fill:#5496CE;" cx="445.793" cy="445.793" r="22.069"/>
		</g>
		<ellipse style="fill:#F4CD1E;" cx="256" cy="256" rx="97.103" ry="194.207"/>
		<ellipse style="fill:#F6AB27;" cx="256" cy="256" rx="61.793" ry="158.897"/>
		<path style="fill:#F4CD1E;" d="M256,317.793c-4.875,0-8.828-3.952-8.828-8.828V203.034c0-4.875,3.952-8.828,8.828-8.828
			s8.828,3.952,8.828,8.828v105.931C264.828,313.841,260.875,317.793,256,317.793z"/>
	</g>
</g>
<g>
</g>
<g>
</g>
<g>
</g>
<g>
</g>
<g>
</g>
<g>
</g>
<g>
</g>
<g>
</g>
<g>
</g>
<g>
</g>
<g>
</g>
<g>
</g>
<g>
</g>
<g>
</g>
<g>
</g>
</svg>
